# xmcd
#
# Track frame offsets:
#	150
#	16107
#	31477
#	44400
#	60380
#	78899
#	95123
#	117760
#	127749
#	136149
#	153323
#	165496
#	173618
#	183897
#	194270
#
# Disc length: 2819 seconds
#
# Revision: 0
# Processed by: cddbd v1.5.1PL2 Copyright (c) Steve Scherf et al.
# Submitted via: dBpowerAMP V4.0
#
DISCID=ad0b010f
DTITLE=Pam Tillis - Live
DYEAR=2005
DGENRE=Country
TTITLE0=Mi Vida Loca (My Crazy Life)
TTITLE1=Cleopatra Queen of Denial
TTITLE2=I Said A Prayer
TTITLE3=Shake the Sugar Tree
TTITLE4=Calico Plains
TTITLE5=Don`t Tell Me What To Do
TTITLE6=Maybe It Was Memphis
TTITLE7=Blue Rose Is
TTITLE8=Do You Know Where Your Man Is
TTITLE9=Heartache
TTITLE10=When You Walk In the Room
TTITLE11=Spilled Perfume
TTITLE12=Let That Pony Run
TTITLE13=All the Good Ones Are Gone
TTITLE14=In Between Dances
EXTD=
EXTT0=
EXTT1=
EXTT2=
EXTT3=
EXTT4=
EXTT5=
EXTT6=
EXTT7=
EXTT8=
EXTT9=
EXTT10=
EXTT11=
EXTT12=
EXTT13=
EXTT14=
PLAYORDER=
